<svg width="26" height="26" viewBox="0 0 26 26" fill="none" xmlns="http://www.w3.org/2000/svg">
<path d="M20.0707 0H5.92933C4.35678 0 2.84863 0.624696 1.73666 1.73666C0.624696 2.84863 0 4.35678 0 5.92933V20.0707C0 21.6432 0.624696 23.1514 1.73666 24.2633C2.84863 25.3753 4.35678 26 5.92933 26H20.0707C21.6432 26 23.1514 25.3753 24.2633 24.2633C25.3753 23.1514 26 21.6432 26 20.0707V5.92933C26 4.35678 25.3753 2.84863 24.2633 1.73666C23.1514 0.624696 21.6432 0 20.0707 0ZM8.79067 20.9893C8.79485 21.0619 8.78415 21.1346 8.75922 21.2029C8.7343 21.2712 8.69568 21.3336 8.64573 21.3864C8.59578 21.4393 8.53556 21.4813 8.46877 21.51C8.40198 21.5387 8.33003 21.5535 8.25733 21.5533H5.884C5.74088 21.5498 5.60483 21.4903 5.5051 21.3876C5.40538 21.2849 5.34993 21.1472 5.35067 21.004V11.1333C5.34871 11.0621 5.36105 10.9911 5.38698 10.9247C5.4129 10.8583 5.45187 10.7978 5.50159 10.7467C5.55132 10.6956 5.61077 10.655 5.67646 10.6273C5.74214 10.5996 5.81271 10.5853 5.884 10.5853H8.25733C8.32862 10.5853 8.3992 10.5996 8.46488 10.6273C8.53056 10.655 8.59002 10.6956 8.63974 10.7467C8.68946 10.7978 8.72843 10.8583 8.75436 10.9247C8.78028 10.9911 8.79263 11.0621 8.79067 11.1333V20.9893ZM7.02667 8.50933C6.76971 8.50741 6.51566 8.45489 6.279 8.35478C6.04234 8.25467 5.82772 8.10892 5.64739 7.92587C5.46706 7.74281 5.32455 7.52603 5.228 7.2879C5.13144 7.04977 5.08274 6.79495 5.08467 6.538C5.08659 6.28105 5.13911 6.02699 5.23922 5.79033C5.33933 5.55368 5.48508 5.33905 5.66813 5.15872C5.85119 4.97839 6.06797 4.83588 6.3061 4.73933C6.54423 4.64278 6.79905 4.59407 7.056 4.596C7.56602 4.61259 8.04937 4.82783 8.40291 5.19581C8.75646 5.56379 8.95219 6.05536 8.94837 6.56564C8.94454 7.07592 8.74145 7.5645 8.38243 7.92713C8.0234 8.28976 7.53688 8.49773 7.02667 8.50667M21.4493 20.9733C21.4487 21.1081 21.3958 21.2373 21.3018 21.3338C21.2078 21.4303 21.08 21.4865 20.9453 21.4907H18.44C18.3051 21.4865 18.1771 21.4301 18.0831 21.3333C17.989 21.2365 17.9363 21.107 17.936 20.972V16.4067C17.936 15.7253 18.144 13.4427 16.128 13.4427C14.556 13.4427 14.2453 15.0427 14.1853 15.7547V21.076C14.1854 21.2112 14.1328 21.3411 14.0387 21.4382C13.9446 21.5352 13.8165 21.5918 13.6813 21.596H11.2507C11.113 21.5956 10.9811 21.5407 10.8838 21.4432C10.7866 21.3457 10.732 21.2137 10.732 21.076V11.0853C10.7362 10.9502 10.7928 10.822 10.8898 10.7279C10.9869 10.6339 11.1168 10.5813 11.252 10.5813H13.6813C13.8165 10.5813 13.9464 10.6339 14.0435 10.7279C14.1406 10.822 14.1972 10.9502 14.2013 11.0853V11.9453C14.556 11.4262 15.0458 11.0137 15.6177 10.7524C16.1896 10.4911 16.822 10.3909 17.4467 10.4627C21.4933 10.4627 21.4787 14.2427 21.4787 16.392L21.4493 20.9733Z" fill="black"/>
</svg>
