<svg width="800" height="800" viewBox="0 0 800 800" fill="none" xmlns="http://www.w3.org/2000/svg">
<path d="M425 133.333C425 119.526 413.807 108.333 400 108.333C386.193 108.333 375 119.526 375 133.333V441.667H200.001C189.889 441.667 180.773 447.757 176.904 457.1C173.034 466.44 175.173 477.193 182.323 484.343L382.323 684.343C387.01 689.033 393.37 691.667 400 691.667C406.63 691.667 412.99 689.033 417.68 684.343L617.68 484.343C624.83 477.193 626.967 466.44 623.097 457.1C619.227 447.757 610.113 441.667 600 441.667H425V133.333Z" fill="white"/>
</svg>
