<svg width="800" height="800" viewBox="0 0 800 800" fill="none" xmlns="http://www.w3.org/2000/svg">
<path d="M433.333 166.667C433.333 148.257 418.41 133.333 400 133.333C381.59 133.333 366.667 148.257 366.667 166.667C366.667 185.076 381.59 200 400 200C418.41 200 433.333 185.076 433.333 166.667Z" stroke="white" stroke-width="66.6667" stroke-linecap="round" stroke-linejoin="round"/>
<path d="M433.333 400C433.333 381.59 418.41 366.667 400 366.667C381.59 366.667 366.667 381.59 366.667 400C366.667 418.41 381.59 433.333 400 433.333C418.41 433.333 433.333 418.41 433.333 400Z" stroke="white" stroke-width="66.6667" stroke-linecap="round" stroke-linejoin="round"/>
<path d="M433.333 633.333C433.333 614.923 418.41 600 400 600C381.59 600 366.667 614.923 366.667 633.333C366.667 651.743 381.59 666.667 400 666.667C418.41 666.667 433.333 651.743 433.333 633.333Z" stroke="white" stroke-width="66.6667" stroke-linecap="round" stroke-linejoin="round"/>
</svg>
