<svg width="255" height="111" viewBox="0 0 255 111" fill="none" xmlns="http://www.w3.org/2000/svg">
<path d="M11.5042 61.3961H6.41461V70.2003H11.5042V61.3961Z" fill="#662D91"/>
<path d="M54.039 88.2853H43.3998V97.0895H54.039V88.2853Z" fill="#662D91"/>
<path d="M54.9482 57.6705V110.213H63.7524V57.6705H54.9482Z" fill="#662D91"/>
<path d="M54.9538 30.7979V47.0423H63.7579V30.7979H54.9538Z" fill="#662D91"/>
<path d="M65.5875 17.3643V33.6088H74.3917V17.3643H65.5875Z" fill="#662D91"/>
<path d="M54.9482 3.90866V20.1531H63.7524V3.90866H54.9482Z" fill="#662D91"/>
<path d="M65.582 44.2258V60.4869H74.3862V44.2258H65.582Z" fill="#662D91"/>
<path d="M65.5875 71.1095V87.3705H74.3917V71.1095H65.5875Z" fill="#662D91"/>
<path d="M76.2157 57.6704V73.9315H85.0198V57.6704H76.2157Z" fill="#662D91"/>
<path d="M86.8439 3.8147e-06V33.6032H95.648V3.8147e-06H86.8439Z" fill="#662D91"/>
<path d="M76.2212 29.8831V47.0423H85.0253V29.8831H76.2212Z" fill="#662D91"/>
<path d="M76.2157 11.3711V20.1752H85.0198V11.3711H76.2157Z" fill="#662D91"/>
<path d="M22.221 47.9515H0V56.7556H22.221V47.9515Z" fill="#662D91"/>
<path d="M64.6782 47.9515H54.0334V56.7556H64.6782V47.9515Z" fill="#662D91"/>
<path d="M85.9346 47.9515H75.3009V56.7556H85.9346V47.9515Z" fill="#662D91"/>
<path d="M107.202 47.9515H96.5682V56.7556H107.202V47.9515Z" fill="#662D91"/>
<path d="M43.4496 47.9515H32.766V56.7556H43.4496V47.9515Z" fill="#662D91"/>
<path d="M75.3009 61.3961H64.6672V70.2003H75.3009V61.3961Z" fill="#662D91"/>
<path d="M113.6 61.3961H85.9346V70.2003H113.6V61.3961Z" fill="#662D91"/>
<path d="M54.039 61.3961H43.3998V70.2003H54.039V61.3961Z" fill="#662D91"/>
<path d="M32.766 61.3961H22.1323V70.2003H32.766V61.3961Z" fill="#662D91"/>
<path d="M12.4245 89.056L12.4245 110.351H21.2286V89.056H12.4245Z" fill="#D700FF"/>
<path d="M85.9402 21.2286H75.3065V29.1291H85.9402V21.2286Z" fill="#D700FF"/>
<path d="M107.208 21.2286H96.5739V29.1291H107.208V21.2286Z" fill="#D700FF"/>
<path d="M21.2286 57.8091H12.4245V74.8075H21.2286V57.8091Z" fill="#D700FF"/>
<path d="M31.8624 71.2537H23.0582V87.2375H31.8624V71.2537Z" fill="#D700FF"/>
<path d="M42.496 57.8091H33.6919V97.2281H42.496V57.8091Z" fill="#D700FF"/>
<path d="M32.7716 34.6511H22.1379V43.4552H32.7716V34.6511Z" fill="#D700FF"/>
<path d="M11.7425 34.6511H1.10883V43.4552H11.7425V34.6511Z" fill="#D700FF"/>
<path d="M54.0501 34.6511H43.4053V43.4552H54.0501V34.6511Z" fill="#D700FF"/>
<path d="M21.2286 30.942H12.4245V47.1864H21.2286V30.942Z" fill="#D700FF"/>
<path d="M42.5293 7.7674H33.6864V47.1864H42.5293V7.7674Z" fill="#D700FF"/>
<path d="M64.6728 21.2286H54.0391V30.0328H64.6728V21.2286Z" fill="#D700FF"/>
<path d="M53.1298 17.4808H44.3257V33.7418H53.1298V17.4808Z" fill="#D700FF"/>
<path d="M53.1298 44.37H44.3257V60.631H53.1298V44.37Z" fill="#D700FF"/>
<path d="M53.1298 71.2537H44.3257V83.789H53.1298V71.2537Z" fill="#D700FF"/>
<path d="M31.8624 44.37H23.0582V60.631H31.8624V44.37Z" fill="#D700FF"/>
<path d="M75.3064 34.6511H64.6727V43.4552H75.3064V34.6511Z" fill="#D700FF"/>
<path d="M117.518 69.5015L119.02 69.1821C119.178 69.1426 119.308 69.0598 119.41 68.9336C119.521 68.8074 119.576 68.6576 119.576 68.4841V55.3289C119.576 55.1475 119.521 54.9937 119.41 54.8675C119.308 54.7413 119.178 54.6585 119.02 54.6191L117.518 54.3115V53.7555H129.414V57.553H128.775L127.936 55.0568C127.896 54.9385 127.841 54.8399 127.77 54.761C127.699 54.6822 127.593 54.6427 127.451 54.6427H121.704V61.2913H125.559C125.717 61.2913 125.831 61.2558 125.902 61.1848C125.973 61.106 126.028 61.0113 126.068 60.9009L126.742 58.8898H127.297V64.5801H126.742L126.068 62.5926C126.028 62.4743 125.973 62.3757 125.902 62.2969C125.831 62.218 125.717 62.1786 125.559 62.1786H121.704V68.4841C121.704 68.6655 121.759 68.8153 121.87 68.9336C121.98 69.0519 122.114 69.1347 122.272 69.1821L123.963 69.5015V70.0575H117.518V69.5015Z" fill="black"/>
<path d="M130.249 69.5015L131.751 69.1821C131.909 69.1426 132.039 69.0598 132.141 68.9336C132.252 68.8074 132.307 68.6576 132.307 68.4841V55.3289C132.307 55.1475 132.252 54.9937 132.141 54.8675C132.039 54.7413 131.909 54.6585 131.751 54.6191L130.249 54.3115V53.7555H136.233C137.037 53.7555 137.742 53.8107 138.349 53.9211C138.956 54.0315 139.477 54.1853 139.91 54.3825C140.352 54.5718 140.714 54.7965 140.998 55.0568C141.29 55.3092 141.518 55.5852 141.684 55.8849C141.857 56.1846 141.976 56.5001 142.039 56.8313C142.11 57.1547 142.145 57.478 142.145 57.8014C142.145 58.4718 142.023 59.0672 141.778 59.5878C141.542 60.1083 141.238 60.5539 140.868 60.9246C140.505 61.2953 140.107 61.5989 139.674 61.8355C139.24 62.0642 138.834 62.2259 138.456 62.3205L142.937 68.2356C143.008 68.3303 143.095 68.4328 143.197 68.5432C143.3 68.6457 143.406 68.7443 143.517 68.839C143.627 68.9257 143.737 69.0046 143.848 69.0756C143.966 69.1387 144.076 69.1821 144.179 69.2057L145.503 69.5015V70.0575H143.008C142.653 70.0575 142.358 70.0299 142.121 69.9747C141.893 69.9195 141.692 69.8327 141.518 69.7144C141.345 69.5882 141.183 69.4344 141.033 69.253C140.892 69.0638 140.726 68.839 140.537 68.5787L136.351 62.7937L134.435 62.427V68.4841C134.435 68.6655 134.479 68.8153 134.565 68.9336C134.66 69.0519 134.786 69.1347 134.944 69.1821L136.694 69.5015V70.0575H130.249V69.5015ZM134.435 61.6935C134.522 61.7172 134.644 61.7369 134.802 61.7527C134.96 61.7685 135.129 61.7842 135.31 61.8C135.492 61.8079 135.665 61.8158 135.831 61.8237C136.004 61.8237 136.146 61.8237 136.256 61.8237C136.871 61.8237 137.403 61.7251 137.853 61.5279C138.31 61.3229 138.688 61.0547 138.988 60.7235C139.287 60.3922 139.512 60.0097 139.662 59.5759C139.812 59.1422 139.886 58.6887 139.886 58.2155C139.886 57.5845 139.8 57.0443 139.626 56.5947C139.453 56.1373 139.201 55.7627 138.87 55.4708C138.546 55.179 138.144 54.9661 137.663 54.832C137.183 54.6901 136.635 54.6191 136.02 54.6191H134.435V61.6935Z" fill="black"/>
<path d="M152.679 70.4242C151.473 70.4242 150.405 70.2152 149.474 69.7972C148.544 69.3713 147.76 68.7838 147.121 68.0345C146.483 67.2774 145.998 66.3783 145.667 65.3372C145.336 64.2883 145.17 63.1408 145.17 61.8946C145.17 60.7116 145.34 59.6035 145.679 58.5704C146.026 57.5372 146.522 56.6381 147.169 55.8731C147.815 55.1002 148.603 54.4929 149.534 54.0512C150.464 53.6096 151.52 53.3887 152.703 53.3887C153.98 53.3887 155.087 53.6175 156.025 54.0749C156.971 54.5244 157.752 55.1357 158.367 55.9086C158.989 56.6815 159.451 57.5845 159.75 58.6177C160.058 59.643 160.211 60.7353 160.211 61.8946C160.211 62.5808 160.148 63.267 160.022 63.9531C159.896 64.6393 159.699 65.2978 159.431 65.9287C159.171 66.5597 158.836 67.1512 158.426 67.7033C158.024 68.2475 157.543 68.7207 156.983 69.1229C156.423 69.5251 155.785 69.8406 155.068 70.0693C154.358 70.3059 153.562 70.4242 152.679 70.4242ZM152.904 69.5724C153.731 69.5724 154.453 69.3871 155.068 69.0164C155.69 68.6379 156.207 68.1213 156.617 67.4667C157.034 66.8121 157.346 66.0431 157.551 65.1598C157.764 64.2686 157.87 63.3103 157.87 62.285C157.87 61.102 157.76 60.0176 157.539 59.0317C157.326 58.0459 156.995 57.1981 156.546 56.4882C156.104 55.7784 155.544 55.2264 154.867 54.832C154.189 54.4377 153.388 54.2405 152.466 54.2405C151.591 54.2405 150.838 54.4416 150.208 54.8438C149.585 55.2461 149.072 55.7824 148.67 56.4528C148.276 57.1152 147.985 57.8842 147.795 58.7596C147.614 59.6272 147.523 60.5342 147.523 61.4806C147.523 62.64 147.63 63.7126 147.843 64.6984C148.056 65.6843 148.383 66.54 148.824 67.2656C149.266 67.9833 149.821 68.5472 150.491 68.9573C151.169 69.3674 151.973 69.5724 152.904 69.5724Z" fill="black"/>
<path d="M161.532 69.5015L163.033 69.1111C163.191 69.0716 163.321 68.9888 163.424 68.8626C163.534 68.7286 163.589 68.5787 163.589 68.4131V55.3762C163.589 55.1948 163.534 55.045 163.424 54.9267C163.321 54.8005 163.191 54.7177 163.033 54.6782L161.413 54.3115V53.7555H165.386L173.202 64.9942L174.314 66.6149V55.3999C174.314 55.2185 174.259 55.0686 174.148 54.9503C174.046 54.8241 173.916 54.7413 173.758 54.7019L172.257 54.3115V53.7555H177.4V54.3115L175.898 54.7019C175.741 54.7413 175.607 54.8241 175.496 54.9503C175.386 55.0765 175.331 55.2264 175.331 55.3999V67.3484L174.976 70.1758H174.314L165.848 58.0143L164.606 56.2043V68.4131C164.606 68.5945 164.657 68.7483 164.76 68.8745C164.87 68.9928 165.004 69.0716 165.162 69.1111L166.663 69.5015V70.0575H161.532V69.5015Z" fill="black"/>
<path d="M181.587 69.5015L183.325 69.1821C183.482 69.1505 183.613 69.0716 183.715 68.9454C183.825 68.8114 183.881 68.6576 183.881 68.4841V54.6427H180.109C179.951 54.6427 179.837 54.6822 179.766 54.761C179.695 54.8399 179.639 54.9385 179.6 55.0568L178.749 57.6713H178.122V53.7555H191.803V57.6713H191.176L190.325 55.0568C190.286 54.9385 190.23 54.8399 190.159 54.761C190.096 54.6822 189.99 54.6427 189.84 54.6427H186.009V68.4841C186.009 68.6655 186.064 68.8193 186.175 68.9454C186.285 69.0716 186.419 69.1505 186.577 69.1821L188.315 69.5015V70.0575H181.587V69.5015Z" fill="black"/>
<path d="M192.762 69.5015L194.263 69.1821C194.421 69.1426 194.551 69.0598 194.654 68.9336C194.764 68.8074 194.819 68.6576 194.819 68.4841V55.3289C194.819 55.1475 194.764 54.9937 194.654 54.8675C194.551 54.7413 194.421 54.6585 194.263 54.6191L192.762 54.3115V53.7555H204.634V57.5766H203.972L203.132 55.0568C203.093 54.9385 203.037 54.8399 202.966 54.761C202.895 54.6822 202.789 54.6427 202.647 54.6427H196.948V61.1139H200.684C200.842 61.1139 200.956 61.0784 201.027 61.0074C201.098 60.9364 201.153 60.8457 201.193 60.7353L201.867 58.7951H202.446V64.3435H201.867L201.193 62.427C201.153 62.3008 201.098 62.2022 201.027 62.1313C200.956 62.0524 200.842 62.013 200.684 62.013H196.948V69.1584H203.664C203.806 69.1584 203.912 69.1229 203.983 69.0519C204.054 68.9731 204.109 68.8705 204.149 68.7443L204.941 65.8933H205.603V70.0575H192.762V69.5015Z" fill="black"/>
<path d="M206.818 69.5015L208.32 69.1821C208.477 69.1426 208.607 69.0598 208.71 68.9336C208.82 68.8074 208.875 68.6576 208.875 68.4841V55.3289C208.875 55.1475 208.82 54.9937 208.71 54.8675C208.607 54.7413 208.477 54.6585 208.32 54.6191L206.818 54.3115V53.7555H213.061V54.3115L211.571 54.6191C211.414 54.6585 211.28 54.7453 211.169 54.8793C211.059 55.0055 211.004 55.1554 211.004 55.3289V68.4841C211.004 68.6655 211.055 68.8193 211.158 68.9454C211.268 69.0638 211.406 69.1426 211.571 69.1821L213.061 69.5015V70.0575H206.818V69.5015Z" fill="black"/>
<path d="M214.197 69.5015L215.699 69.1821C215.856 69.1426 215.986 69.0598 216.089 68.9336C216.199 68.8074 216.254 68.6576 216.254 68.4841V55.3289C216.254 55.1475 216.199 54.9937 216.089 54.8675C215.986 54.7413 215.856 54.6585 215.699 54.6191L214.197 54.3115V53.7555H220.18C220.984 53.7555 221.69 53.8107 222.297 53.9211C222.904 54.0315 223.424 54.1853 223.858 54.3825C224.299 54.5718 224.662 54.7965 224.945 55.0568C225.237 55.3092 225.466 55.5852 225.631 55.8849C225.805 56.1846 225.923 56.5001 225.986 56.8313C226.057 57.1547 226.092 57.478 226.092 57.8014C226.092 58.4718 225.97 59.0672 225.726 59.5878C225.489 60.1083 225.186 60.5539 224.815 60.9246C224.453 61.2953 224.055 61.5989 223.621 61.8355C223.187 62.0642 222.781 62.2259 222.403 62.3205L226.885 68.2356C226.956 68.3303 227.042 68.4328 227.145 68.5432C227.247 68.6457 227.354 68.7443 227.464 68.839C227.574 68.9257 227.685 69.0046 227.795 69.0756C227.913 69.1387 228.024 69.1821 228.126 69.2057L229.451 69.5015V70.0575H226.956C226.601 70.0575 226.305 70.0299 226.069 69.9747C225.84 69.9195 225.639 69.8327 225.466 69.7144C225.292 69.5882 225.131 69.4344 224.981 69.253C224.839 69.0638 224.673 68.839 224.484 68.5787L220.298 62.7937L218.383 62.427V68.4841C218.383 68.6655 218.426 68.8153 218.513 68.9336C218.607 69.0519 218.734 69.1347 218.891 69.1821L220.641 69.5015V70.0575H214.197V69.5015ZM218.383 61.6935C218.469 61.7172 218.592 61.7369 218.749 61.7527C218.907 61.7685 219.076 61.7842 219.258 61.8C219.439 61.8079 219.612 61.8158 219.778 61.8237C219.951 61.8237 220.093 61.8237 220.204 61.8237C220.819 61.8237 221.351 61.7251 221.8 61.5279C222.257 61.3229 222.636 61.0547 222.935 60.7235C223.235 60.3922 223.459 60.0097 223.609 59.5759C223.759 59.1422 223.834 58.6887 223.834 58.2155C223.834 57.5845 223.747 57.0443 223.574 56.5947C223.4 56.1373 223.148 55.7627 222.817 55.4708C222.494 55.179 222.092 54.9661 221.611 54.832C221.13 54.6901 220.582 54.6191 219.967 54.6191H218.383V61.6935Z" fill="black"/>
<path d="M227.933 69.5015L228.949 69.2057C229.107 69.1584 229.245 69.0716 229.363 68.9454C229.489 68.8114 229.584 68.6655 229.647 68.5077L234.342 56.228L235.772 53.507H236.233L242.028 68.5077C242.091 68.6655 242.181 68.8114 242.3 68.9454C242.426 69.0716 242.568 69.1584 242.725 69.2057L243.742 69.5015V70.0575H237.984V69.5015L240.041 69.1111L238.078 64.0004H232.355L230.522 69.0638L232.532 69.5015V70.0575H227.933V69.5015ZM237.712 63.1013L235.772 58.109L235.181 56.5119H235.169L232.722 63.1013H237.712Z" fill="black"/>
<path d="M243.979 65.1834H244.606L245.54 67.5377C245.58 67.6323 245.655 67.7427 245.765 67.8689C245.883 67.9951 245.986 68.0858 246.072 68.141C246.356 68.3224 246.664 68.488 246.995 68.6379C247.326 68.7877 247.657 68.9178 247.988 69.0283C248.319 69.1308 248.634 69.2136 248.934 69.2767C249.234 69.3319 249.498 69.3595 249.726 69.3595C250.223 69.3595 250.672 69.2885 251.074 69.1466C251.484 69.0046 251.831 68.7995 252.115 68.5314C252.406 68.2554 252.627 67.9202 252.777 67.5258C252.935 67.1236 253.014 66.6662 253.014 66.1535C253.014 65.4279 252.816 64.8364 252.422 64.379C252.028 63.9137 251.496 63.539 250.826 63.2551C250.526 63.1289 250.231 63.0264 249.939 62.9475C249.647 62.8608 249.352 62.778 249.052 62.6991C248.761 62.6202 248.465 62.5414 248.165 62.4625C247.874 62.3757 247.582 62.2732 247.29 62.1549C246.407 61.8 245.722 61.2913 245.233 60.6288C244.752 59.9663 244.512 59.1619 244.512 58.2155C244.512 57.5451 244.642 56.9181 244.902 56.3345C245.162 55.7429 245.521 55.2303 245.978 54.7965C246.443 54.3549 246.991 54.0118 247.621 53.7673C248.252 53.5149 248.934 53.3887 249.667 53.3887C250.069 53.3887 250.467 53.4124 250.861 53.4597C251.256 53.4991 251.642 53.5544 252.02 53.6253C252.399 53.6963 252.765 53.7831 253.12 53.8856C253.475 53.9802 253.818 54.0828 254.149 54.1932V58.038H253.522L252.706 55.8494C252.667 55.7311 252.592 55.6246 252.481 55.53C252.379 55.4354 252.284 55.3565 252.198 55.2934C252.008 55.1514 251.788 55.0292 251.535 54.9267C251.283 54.8241 251.023 54.7374 250.755 54.6664C250.495 54.5954 250.239 54.5442 249.986 54.5126C249.734 54.4732 249.517 54.4535 249.336 54.4535C248.871 54.4535 248.453 54.5205 248.083 54.6546C247.72 54.7808 247.413 54.9582 247.16 55.1869C246.908 55.4156 246.711 55.6917 246.569 56.015C246.435 56.3384 246.368 56.6894 246.368 57.0679C246.368 57.3992 246.4 57.7225 246.463 58.038C246.526 58.3535 246.64 58.6492 246.806 58.9253C246.971 59.2013 247.196 59.4576 247.48 59.6942C247.771 59.9229 248.138 60.1162 248.579 60.2739C248.863 60.3764 249.143 60.4671 249.419 60.546C249.703 60.6249 249.986 60.7037 250.27 60.7826C250.554 60.8615 250.842 60.9482 251.133 61.0429C251.433 61.1375 251.744 61.2519 252.068 61.386C252.43 61.5358 252.785 61.7172 253.132 61.9301C253.486 62.1352 253.802 62.3915 254.078 62.6991C254.354 63.0067 254.574 63.3734 254.74 63.7993C254.913 64.2252 255 64.73 255 65.3136C255 65.9366 254.886 66.5557 254.657 67.1709C254.436 67.7782 254.082 68.3224 253.593 68.8035C253.112 69.2846 252.493 69.675 251.736 69.9747C250.98 70.2744 250.073 70.4242 249.017 70.4242C248.67 70.4242 248.303 70.3927 247.917 70.3296C247.539 70.2744 247.145 70.1995 246.735 70.1048C246.333 70.0102 245.923 69.8998 245.505 69.7736C245.087 69.6474 244.673 69.5172 244.263 69.3832L243.979 65.1834Z" fill="black"/>
<path d="M109.666 45.9446L111.17 45.6252C111.328 45.5857 111.459 45.5029 111.561 45.3767C111.672 45.2505 111.727 45.1007 111.727 44.9272V31.772C111.727 31.5906 111.672 31.4368 111.561 31.3106C111.459 31.1844 111.328 31.1016 111.17 31.0622L109.666 30.7546V30.1986H115.565C116.75 30.1986 117.721 30.3011 118.479 30.5062C119.245 30.7033 119.846 30.9715 120.28 31.3106C120.714 31.6419 121.014 32.0244 121.18 32.4582C121.346 32.8919 121.429 33.3415 121.429 33.8068C121.429 34.3194 121.346 34.7926 121.18 35.2264C121.014 35.6602 120.777 36.0506 120.469 36.3976C120.161 36.7446 119.79 37.0443 119.356 37.2967C118.922 37.5412 118.44 37.7344 117.911 37.8764C118.543 37.9 119.135 38.0105 119.688 38.2076C120.248 38.3969 120.734 38.6611 121.145 39.0003C121.563 39.3315 121.891 39.7337 122.128 40.2069C122.373 40.6801 122.495 41.2125 122.495 41.804C122.495 42.4271 122.404 42.9752 122.223 43.4484C122.049 43.9216 121.804 44.3317 121.488 44.6788C121.18 45.0258 120.813 45.3176 120.387 45.5542C119.968 45.7829 119.514 45.9682 119.024 46.1102C118.543 46.2522 118.037 46.3547 117.508 46.4178C116.979 46.473 116.45 46.5006 115.921 46.5006H109.666V45.9446ZM114.937 37.7108C115.727 37.7108 116.391 37.6398 116.928 37.4978C117.472 37.3559 117.911 37.1547 118.242 36.8945C118.574 36.6263 118.811 36.303 118.953 35.9244C119.103 35.5379 119.178 35.1042 119.178 34.6231C119.178 33.9921 119.095 33.4519 118.929 33.0023C118.772 32.5528 118.531 32.1861 118.207 31.9021C117.883 31.6103 117.476 31.3974 116.987 31.2633C116.505 31.1292 115.94 31.0622 115.293 31.0622H113.859V37.7108H114.937ZM116.359 45.6252C117.623 45.6252 118.57 45.3649 119.202 44.8444C119.834 44.3238 120.15 43.4721 120.15 42.2891C120.15 41.595 120.063 41.0114 119.889 40.5382C119.715 40.0571 119.447 39.6706 119.083 39.3788C118.72 39.0791 118.254 38.8622 117.686 38.7282C117.125 38.5941 116.458 38.527 115.684 38.527H113.859V45.6252H116.359Z" fill="black"/>
<path d="M131.719 46.8673C130.511 46.8673 129.441 46.6583 128.509 46.2403C127.577 45.8145 126.792 45.2269 126.152 44.4776C125.512 43.7205 125.026 42.8214 124.695 41.7804C124.363 40.7314 124.197 39.5839 124.197 38.3378C124.197 37.1547 124.367 36.0466 124.707 35.0135C125.054 33.9803 125.552 33.0812 126.199 32.3162C126.847 31.5433 127.637 30.936 128.568 30.4943C129.5 30.0527 130.559 29.8318 131.743 29.8318C133.022 29.8318 134.132 30.0606 135.072 30.518C136.019 30.9675 136.801 31.5788 137.417 32.3517C138.041 33.1246 138.503 34.0276 138.803 35.0608C139.111 36.0861 139.265 37.1784 139.265 38.3378C139.265 39.0239 139.202 39.7101 139.076 40.3962C138.949 41.0824 138.752 41.7409 138.483 42.3719C138.223 43.0028 137.887 43.5943 137.477 44.1464C137.074 44.6906 136.592 45.1638 136.031 45.566C135.471 45.9682 134.831 46.2837 134.112 46.5124C133.402 46.749 132.604 46.8673 131.719 46.8673ZM131.944 46.0156C132.774 46.0156 133.496 45.8302 134.112 45.4595C134.736 45.081 135.253 44.5644 135.664 43.9098C136.083 43.2552 136.395 42.4862 136.6 41.6029C136.813 40.7117 136.92 39.7534 136.92 38.7282C136.92 37.5451 136.809 36.4607 136.588 35.4749C136.375 34.489 136.043 33.6412 135.593 32.9314C135.151 32.2215 134.59 31.6695 133.911 31.2751C133.232 30.8808 132.43 30.6836 131.506 30.6836C130.63 30.6836 129.875 30.8847 129.244 31.287C128.62 31.6892 128.106 32.2255 127.704 32.8959C127.309 33.5584 127.017 34.3273 126.827 35.2028C126.645 36.0703 126.555 36.9773 126.555 37.9237C126.555 39.0831 126.661 40.1557 126.874 41.1415C127.088 42.1274 127.415 42.9831 127.858 43.7087C128.3 44.4264 128.857 44.9903 129.528 45.4004C130.207 45.8105 131.013 46.0156 131.944 46.0156Z" fill="black"/>
<path d="M140.588 45.9446L142.092 45.6252C142.25 45.5857 142.381 45.5029 142.483 45.3767C142.594 45.2505 142.649 45.1007 142.649 44.9272V31.772C142.649 31.5906 142.594 31.4368 142.483 31.3106C142.381 31.1844 142.25 31.1016 142.092 31.0622L140.588 30.7546V30.1986H146.582C147.387 30.1986 148.094 30.2538 148.702 30.3642C149.31 30.4746 149.832 30.6284 150.266 30.8256C150.708 31.0149 151.072 31.2396 151.356 31.4999C151.648 31.7523 151.877 32.0283 152.043 32.328C152.217 32.6277 152.335 32.9432 152.398 33.2744C152.469 33.5978 152.505 33.9212 152.505 34.2445C152.505 34.9149 152.382 35.5103 152.138 36.0309C151.901 36.5514 151.597 36.997 151.226 37.3677C150.862 37.7384 150.463 38.042 150.029 38.2786C149.595 38.5073 149.188 38.669 148.809 38.7637L153.299 44.6788C153.37 44.7734 153.457 44.8759 153.559 44.9863C153.662 45.0889 153.768 45.1874 153.879 45.2821C153.99 45.3688 154.1 45.4477 154.211 45.5187C154.329 45.5818 154.44 45.6252 154.542 45.6488L155.869 45.9446V46.5006H153.37C153.014 46.5006 152.718 46.473 152.481 46.4178C152.252 46.3626 152.051 46.2758 151.877 46.1575C151.703 46.0313 151.541 45.8775 151.391 45.6961C151.249 45.5069 151.083 45.2821 150.894 45.0218L146.7 39.2369L144.781 38.8701V44.9272C144.781 45.1086 144.825 45.2584 144.912 45.3767C145.006 45.495 145.133 45.5778 145.291 45.6252L147.044 45.9446V46.5006H140.588V45.9446ZM144.781 38.1367C144.868 38.1603 144.991 38.18 145.149 38.1958C145.307 38.2116 145.476 38.2273 145.658 38.2431C145.84 38.251 146.013 38.2589 146.179 38.2668C146.353 38.2668 146.495 38.2668 146.606 38.2668C147.222 38.2668 147.755 38.1682 148.205 37.971C148.663 37.766 149.042 37.4978 149.342 37.1666C149.642 36.8353 149.867 36.4528 150.017 36.019C150.167 35.5853 150.242 35.1318 150.242 34.6586C150.242 34.0276 150.155 33.4874 149.982 33.0378C149.808 32.5804 149.555 32.2058 149.224 31.914C148.9 31.6222 148.497 31.4092 148.015 31.2751C147.534 31.1332 146.985 31.0622 146.369 31.0622H144.781V38.1367Z" fill="black"/>
<path d="M155.58 45.9446L157.085 45.6252C157.243 45.5857 157.373 45.5029 157.476 45.3767C157.586 45.2505 157.642 45.1007 157.642 44.9272V31.772C157.642 31.5906 157.586 31.4368 157.476 31.3106C157.373 31.1844 157.243 31.1016 157.085 31.0622L155.58 30.7546V30.1986H161.574C162.38 30.1986 163.087 30.2538 163.695 30.3642C164.303 30.4746 164.824 30.6284 165.258 30.8256C165.701 31.0149 166.064 31.2396 166.348 31.4999C166.64 31.7523 166.87 32.0283 167.035 32.328C167.209 32.6277 167.328 32.9432 167.391 33.2744C167.462 33.5978 167.497 33.9212 167.497 34.2445C167.497 34.9149 167.375 35.5103 167.13 36.0309C166.893 36.5514 166.589 36.997 166.218 37.3677C165.855 37.7384 165.456 38.042 165.022 38.2786C164.587 38.5073 164.18 38.669 163.801 38.7637L168.291 44.6788C168.362 44.7734 168.449 44.8759 168.552 44.9863C168.654 45.0889 168.761 45.1874 168.871 45.2821C168.982 45.3688 169.093 45.4477 169.203 45.5187C169.322 45.5818 169.432 45.6252 169.535 45.6488L170.862 45.9446V46.5006H168.362C168.007 46.5006 167.711 46.473 167.474 46.4178C167.245 46.3626 167.043 46.2758 166.87 46.1575C166.696 46.0313 166.534 45.8775 166.384 45.6961C166.242 45.5069 166.076 45.2821 165.886 45.0218L161.693 39.2369L159.774 38.8701V44.9272C159.774 45.1086 159.817 45.2584 159.904 45.3767C159.999 45.495 160.125 45.5778 160.283 45.6252L162.036 45.9446V46.5006H155.58V45.9446ZM159.774 38.1367C159.861 38.1603 159.983 38.18 160.141 38.1958C160.299 38.2116 160.469 38.2273 160.65 38.2431C160.832 38.251 161.006 38.2589 161.172 38.2668C161.345 38.2668 161.488 38.2668 161.598 38.2668C162.214 38.2668 162.747 38.1682 163.197 37.971C163.655 37.766 164.034 37.4978 164.334 37.1666C164.635 36.8353 164.86 36.4528 165.01 36.019C165.16 35.5853 165.235 35.1318 165.235 34.6586C165.235 34.0276 165.148 33.4874 164.974 33.0378C164.8 32.5804 164.548 32.2058 164.216 31.914C163.892 31.6222 163.489 31.4092 163.008 31.2751C162.526 31.1332 161.977 31.0622 161.361 31.0622H159.774V38.1367Z" fill="black"/>
<path d="M169.341 45.9446L170.36 45.6488C170.518 45.6015 170.656 45.5148 170.774 45.3886C170.901 45.2545 170.995 45.1086 171.059 44.9508L175.761 32.6711L177.195 29.9502H177.657L183.461 44.9508C183.524 45.1086 183.615 45.2545 183.734 45.3886C183.86 45.5148 184.002 45.6015 184.16 45.6488L185.179 45.9446V46.5006H179.41V45.9446L181.471 45.5542L179.505 40.4435H173.771L171.935 45.5069L173.949 45.9446V46.5006H169.341V45.9446ZM179.137 39.5444L177.195 34.5521L176.602 32.955H176.591L174.138 39.5444H179.137Z" fill="black"/>
<path d="M185.097 45.9446L186.601 45.5542C186.759 45.5148 186.889 45.4319 186.992 45.3058C187.103 45.1717 187.158 45.0218 187.158 44.8562V31.8193C187.158 31.6379 187.103 31.4881 186.992 31.3698C186.889 31.2436 186.759 31.1608 186.601 31.1213L184.978 30.7546V30.1986H188.959L196.789 41.4373L197.902 43.058V31.843C197.902 31.6616 197.847 31.5117 197.736 31.3934C197.634 31.2672 197.503 31.1844 197.345 31.145L195.841 30.7546V30.1986H200.994V30.7546L199.49 31.145C199.332 31.1844 199.197 31.2672 199.087 31.3934C198.976 31.5196 198.921 31.6695 198.921 31.843V43.7915L198.566 46.6189H197.902L189.421 34.4575L188.177 32.6474V44.8562C188.177 45.0376 188.228 45.1914 188.331 45.3176C188.441 45.4359 188.576 45.5148 188.733 45.5542L190.238 45.9446V46.5006H185.097V45.9446Z" fill="black"/>
<path d="M201.859 45.9446L203.364 45.6252C203.522 45.5857 203.652 45.5029 203.754 45.3767C203.865 45.2505 203.92 45.1007 203.92 44.9272V31.772C203.92 31.5906 203.865 31.4368 203.754 31.3106C203.652 31.1844 203.522 31.1016 203.364 31.0622L201.859 30.7546V30.1986H208.623C209.152 30.1986 209.721 30.2498 210.329 30.3524C210.937 30.4549 211.541 30.6284 212.141 30.8729C212.742 31.1174 213.318 31.4447 213.871 31.8548C214.424 32.257 214.913 32.7618 215.34 33.3691C215.766 33.9764 216.106 34.698 216.359 35.534C216.611 36.3621 216.738 37.3204 216.738 38.4087C216.738 39.7968 216.52 40.9996 216.086 42.017C215.66 43.0344 215.075 43.8743 214.333 44.5368C213.591 45.1993 212.722 45.6922 211.727 46.0156C210.74 46.3389 209.689 46.5006 208.576 46.5006H201.859V45.9446ZM208.777 45.6252C209.725 45.6252 210.546 45.4714 211.241 45.1638C211.944 44.8562 212.528 44.4106 212.994 43.827C213.46 43.2434 213.808 42.5257 214.037 41.6739C214.266 40.8221 214.38 39.856 214.38 38.7755C214.38 37.5846 214.226 36.5159 213.918 35.5695C213.618 34.6152 213.192 33.8068 212.639 33.1443C212.086 32.4739 211.419 31.9613 210.637 31.6064C209.863 31.2436 209.006 31.0622 208.066 31.0622H206.053V45.6252H208.777Z" fill="black"/>
<path d="M225.761 46.8673C224.552 46.8673 223.482 46.6583 222.55 46.2403C221.618 45.8145 220.833 45.2269 220.193 44.4776C219.553 43.7205 219.068 42.8214 218.736 41.7804C218.404 40.7314 218.238 39.5839 218.238 38.3378C218.238 37.1547 218.408 36.0466 218.748 35.0135C219.095 33.9803 219.593 33.0812 220.24 32.3162C220.888 31.5433 221.678 30.936 222.61 30.4943C223.541 30.0527 224.6 29.8318 225.784 29.8318C227.064 29.8318 228.173 30.0606 229.113 30.518C230.061 30.9675 230.842 31.5788 231.458 32.3517C232.082 33.1246 232.544 34.0276 232.844 35.0608C233.152 36.0861 233.306 37.1784 233.306 38.3378C233.306 39.0239 233.243 39.7101 233.117 40.3962C232.991 41.0824 232.793 41.7409 232.525 42.3719C232.264 43.0028 231.928 43.5943 231.518 44.1464C231.115 44.6906 230.633 45.1638 230.072 45.566C229.512 45.9682 228.872 46.2837 228.153 46.5124C227.443 46.749 226.645 46.8673 225.761 46.8673ZM225.986 46.0156C226.815 46.0156 227.537 45.8302 228.153 45.4595C228.777 45.081 229.295 44.5644 229.705 43.9098C230.124 43.2552 230.436 42.4862 230.641 41.6029C230.854 40.7117 230.961 39.7534 230.961 38.7282C230.961 37.5451 230.85 36.4607 230.629 35.4749C230.416 34.489 230.084 33.6412 229.634 32.9314C229.192 32.2215 228.631 31.6695 227.952 31.2751C227.273 30.8808 226.471 30.6836 225.547 30.6836C224.671 30.6836 223.917 30.8847 223.285 31.287C222.661 31.6892 222.148 32.2255 221.745 32.8959C221.35 33.5584 221.058 34.3273 220.868 35.2028C220.687 36.0703 220.596 36.9773 220.596 37.9237C220.596 39.0831 220.702 40.1557 220.916 41.1415C221.129 42.1274 221.457 42.9831 221.899 43.7087C222.341 44.4264 222.898 44.9903 223.569 45.4004C224.248 45.8105 225.054 46.0156 225.986 46.0156Z" fill="black"/>
<path d="M164.585 77.54V79.685C164.325 79.7777 163.813 79.93 163.207 79.93C162.529 79.93 161.97 79.7578 161.531 79.3408C161.145 78.97 160.906 78.3742 160.906 77.679C160.912 76.3483 161.83 75.3751 163.334 75.3751C163.853 75.3751 164.259 75.4876 164.452 75.5803L164.312 76.0503C164.072 75.9444 163.773 75.8584 163.321 75.8584C162.229 75.8584 161.518 76.5336 161.518 77.6525C161.518 78.7846 162.203 79.4533 163.247 79.4533C163.627 79.4533 163.886 79.4003 164.019 79.3341V78.0034H163.108V77.54H164.585Z" fill="black"/>
<path d="M165.473 79.8836V75.481C165.765 75.4214 166.184 75.3883 166.584 75.3883C167.202 75.3883 167.602 75.5008 167.881 75.7524C168.107 75.951 168.234 76.2556 168.234 76.5999C168.234 77.1891 167.861 77.5797 167.389 77.7386V77.7584C167.735 77.8776 167.941 78.1954 168.047 78.6588C168.194 79.2812 168.3 79.7115 168.393 79.8836H167.794C167.721 79.7578 167.621 79.3739 167.495 78.8177C167.362 78.202 167.123 77.9703 166.597 77.9504H166.051V79.8836H165.473ZM166.051 75.8848V77.5135H166.644C167.262 77.5135 167.655 77.1758 167.655 76.6661C167.655 76.0901 167.236 75.8385 166.624 75.8319C166.344 75.8319 166.145 75.8584 166.051 75.8848Z" fill="black"/>
<path d="M169.046 75.4214H169.631V78.063C169.631 79.0627 170.077 79.4864 170.676 79.4864C171.341 79.4864 171.767 79.0495 171.767 78.063V75.4214H172.352V78.0233C172.352 79.3937 171.627 79.9565 170.656 79.9565C169.738 79.9565 169.046 79.4334 169.046 78.0498V75.4214Z" fill="black"/>
<path d="M173.36 79.8836V75.4744C173.639 75.428 174.005 75.3883 174.471 75.3883C175.043 75.3883 175.462 75.5207 175.728 75.759C175.974 75.9709 176.121 76.2953 176.121 76.6925C176.121 77.0964 176.001 77.4142 175.775 77.6459C175.469 77.9703 174.97 78.1358 174.404 78.1358C174.231 78.1358 174.072 78.1292 173.939 78.0961V79.8836H173.36ZM173.939 75.8915V77.626C174.065 77.6591 174.225 77.6724 174.418 77.6724C175.116 77.6724 175.542 77.3347 175.542 76.719C175.542 76.1298 175.123 75.8451 174.484 75.8451C174.231 75.8451 174.038 75.865 173.939 75.8915Z" fill="black"/>
<path d="M178.717 75.3486C179.941 75.3486 180.733 76.2821 180.733 77.6062C180.733 79.1421 179.795 79.9565 178.65 79.9565C177.466 79.9565 176.635 79.0428 176.635 77.6922C176.635 76.2754 177.519 75.3486 178.717 75.3486ZM178.69 75.8186C177.732 75.8186 177.253 76.6992 177.253 77.679C177.253 78.6324 177.772 79.4864 178.684 79.4864C179.602 79.4864 180.121 78.6456 180.121 77.6327C180.121 76.7455 179.655 75.8186 178.69 75.8186Z" fill="black"/>
<path d="M182.897 79.8704V75.481C183.25 75.428 183.669 75.3883 184.128 75.3883C184.96 75.3883 185.552 75.5803 185.944 75.9444C186.344 76.3085 186.576 76.825 186.576 77.5466C186.576 78.2748 186.35 78.8707 185.931 79.2812C185.512 79.6983 184.82 79.9234 183.949 79.9234C183.536 79.9234 183.19 79.9035 182.897 79.8704ZM183.476 75.9047V79.4268C183.623 79.4533 183.835 79.4599 184.062 79.4599C185.299 79.4599 185.971 78.7714 185.971 77.5665C185.978 76.5138 185.379 75.8451 184.155 75.8451C183.855 75.8451 183.629 75.8716 183.476 75.9047Z" fill="black"/>
<path d="M189.65 77.3149V77.7915H187.907V79.4003H189.85V79.8836H187.328V75.4214H189.75V75.9047H187.907V77.3149H189.65Z" fill="black"/>
<path d="M194.334 77.3149V77.7915H192.591V79.4003H194.534V79.8836H192.013V75.4214H194.434V75.9047H192.591V77.3149H194.334Z" fill="black"/>
<path d="M195.061 79.6652L195.207 79.1819C195.467 79.3408 195.846 79.4732 196.245 79.4732C196.837 79.4732 197.183 79.162 197.183 78.7118C197.183 78.2947 196.944 78.0564 196.338 77.8247C195.606 77.5665 195.154 77.1891 195.154 76.5601C195.154 75.865 195.733 75.3486 196.604 75.3486C197.063 75.3486 197.396 75.4545 197.596 75.567L197.436 76.0371C197.289 75.9577 196.99 75.8253 196.584 75.8253C195.972 75.8253 195.739 76.1894 195.739 76.4939C195.739 76.911 196.012 77.1163 196.631 77.3546C197.389 77.6459 197.775 78.01 197.775 78.6655C197.775 79.354 197.263 79.9498 196.205 79.9498C195.773 79.9498 195.3 79.8241 195.061 79.6652Z" fill="black"/>
<path d="M199.419 79.8836V75.9113H198.056V75.4214H201.375V75.9113H200.005V79.8836H199.419Z" fill="black"/>
<path d="M201.868 75.4214H202.454V78.063C202.454 79.0627 202.899 79.4864 203.498 79.4864C204.163 79.4864 204.589 79.0495 204.589 78.063V75.4214H205.175V78.0233C205.175 79.3937 204.45 79.9565 203.478 79.9565C202.56 79.9565 201.868 79.4334 201.868 78.0498V75.4214Z" fill="black"/>
<path d="M206.182 79.8704V75.481C206.535 75.428 206.954 75.3883 207.413 75.3883C208.245 75.3883 208.837 75.5803 209.229 75.9444C209.628 76.3085 209.861 76.825 209.861 77.5466C209.861 78.2748 209.635 78.8707 209.216 79.2812C208.797 79.6983 208.105 79.9234 207.233 79.9234C206.821 79.9234 206.475 79.9035 206.182 79.8704ZM206.761 75.9047V79.4268C206.907 79.4533 207.12 79.4599 207.347 79.4599C208.584 79.4599 209.256 78.7714 209.256 77.5665C209.263 76.5138 208.664 75.8451 207.44 75.8451C207.14 75.8451 206.914 75.8716 206.761 75.9047Z" fill="black"/>
<path d="M212.429 75.3486C213.654 75.3486 214.445 76.2821 214.445 77.6062C214.445 79.1421 213.507 79.9565 212.363 79.9565C211.179 79.9565 210.347 79.0428 210.347 77.6922C210.347 76.2754 211.232 75.3486 212.429 75.3486ZM212.403 75.8186C211.445 75.8186 210.966 76.6992 210.966 77.679C210.966 78.6324 211.485 79.4864 212.396 79.4864C213.314 79.4864 213.833 78.6456 213.833 77.6327C213.833 76.7455 213.367 75.8186 212.403 75.8186Z" fill="black"/>
<path d="M214.974 79.6652L215.12 79.1819C215.38 79.3408 215.759 79.4732 216.158 79.4732C216.75 79.4732 217.096 79.162 217.096 78.7118C217.096 78.2947 216.857 78.0564 216.251 77.8247C215.519 77.5665 215.067 77.1891 215.067 76.5601C215.067 75.865 215.646 75.3486 216.517 75.3486C216.976 75.3486 217.309 75.4545 217.509 75.567L217.349 76.0371C217.203 75.9577 216.903 75.8253 216.497 75.8253C215.885 75.8253 215.652 76.1894 215.652 76.4939C215.652 76.911 215.925 77.1163 216.544 77.3546C217.302 77.6459 217.688 78.01 217.688 78.6655C217.688 79.354 217.176 79.9498 216.118 79.9498C215.686 79.9498 215.213 79.8241 214.974 79.6652Z" fill="black"/>
<path d="M222.213 77.3149V77.7915H220.47V79.4003H222.412V79.8836H219.891V75.4214H222.312V75.9047H220.47V77.3149H222.213Z" fill="black"/>
<path d="M224.575 79.8836V75.4744C224.855 75.428 225.22 75.3883 225.686 75.3883C226.258 75.3883 226.677 75.5207 226.944 75.759C227.19 75.9709 227.336 76.2953 227.336 76.6925C227.336 77.0964 227.216 77.4142 226.99 77.6459C226.684 77.9703 226.185 78.1358 225.62 78.1358C225.447 78.1358 225.287 78.1292 225.154 78.0961V79.8836H224.575ZM225.154 75.8915V77.626C225.28 77.6591 225.44 77.6724 225.633 77.6724C226.331 77.6724 226.757 77.3347 226.757 76.719C226.757 76.1298 226.338 75.8451 225.699 75.8451C225.447 75.8451 225.254 75.865 225.154 75.8915Z" fill="black"/>
<path d="M230.438 77.3149V77.7915H228.695V79.4003H230.637V79.8836H228.116V75.4214H230.538V75.9047H228.695V77.3149H230.438Z" fill="black"/>
<path d="M231.164 79.6652L231.311 79.1819C231.57 79.3408 231.949 79.4732 232.348 79.4732C232.94 79.4732 233.286 79.162 233.286 78.7118C233.286 78.2947 233.047 78.0564 232.442 77.8247C231.71 77.5665 231.257 77.1891 231.257 76.5601C231.257 75.865 231.836 75.3486 232.708 75.3486C233.167 75.3486 233.499 75.4545 233.699 75.567L233.539 76.0371C233.393 75.9577 233.093 75.8253 232.688 75.8253C232.076 75.8253 231.843 76.1894 231.843 76.4939C231.843 76.911 232.116 77.1163 232.734 77.3546C233.493 77.6459 233.879 78.01 233.879 78.6655C233.879 79.354 233.366 79.9498 232.308 79.9498C231.876 79.9498 231.404 79.8241 231.164 79.6652Z" fill="black"/>
<path d="M238.537 80.0558L238.37 80.5391C237.765 80.3802 237.173 80.2014 236.654 80.0227C236.561 79.9896 236.468 79.9565 236.381 79.9565C235.317 79.9167 234.405 79.1355 234.405 77.6989C234.405 76.2688 235.283 75.3486 236.494 75.3486C237.712 75.3486 238.503 76.2887 238.503 77.6062C238.503 78.7515 237.971 79.4864 237.226 79.7446V79.7711C237.672 79.8836 238.157 79.9896 238.537 80.0558ZM236.448 79.4864C237.372 79.4864 237.891 78.6522 237.891 77.6327C237.891 76.7389 237.426 75.8186 236.474 75.8186C235.496 75.8186 235.017 76.719 235.024 77.6856C235.017 78.6324 235.543 79.4864 236.448 79.4864Z" fill="black"/>
<path d="M239.251 75.4214H239.837V78.063C239.837 79.0627 240.283 79.4864 240.881 79.4864C241.547 79.4864 241.973 79.0495 241.973 78.063V75.4214H242.558V78.0233C242.558 79.3937 241.833 79.9565 240.861 79.9565C239.943 79.9565 239.251 79.4334 239.251 78.0498V75.4214Z" fill="black"/>
<path d="M243.566 75.4214H244.144V79.8836H243.566V75.4214Z" fill="black"/>
<path d="M244.931 79.6652L245.077 79.1819C245.337 79.3408 245.716 79.4732 246.115 79.4732C246.707 79.4732 247.053 79.162 247.053 78.7118C247.053 78.2947 246.814 78.0564 246.208 77.8247C245.477 77.5665 245.024 77.1891 245.024 76.5601C245.024 75.865 245.603 75.3486 246.475 75.3486C246.934 75.3486 247.266 75.4545 247.466 75.567L247.306 76.0371C247.16 75.9577 246.86 75.8253 246.455 75.8253C245.843 75.8253 245.61 76.1894 245.61 76.4939C245.61 76.911 245.882 77.1163 246.501 77.3546C247.26 77.6459 247.646 78.01 247.646 78.6655C247.646 79.354 247.133 79.9498 246.075 79.9498C245.643 79.9498 245.171 79.8241 244.931 79.6652Z" fill="black"/>
<path d="M250.753 78.4801H249.163L248.698 79.8836H248.099L249.622 75.4214H250.321L251.851 79.8836H251.232L250.753 78.4801ZM249.283 78.0299H250.634L250.195 76.7455C250.095 76.4542 250.028 76.1894 249.962 75.9312H249.948C249.882 76.196 249.809 76.4674 249.722 76.7389L249.283 78.0299Z" fill="black"/>
<path d="M252.286 79.6652L252.432 79.1819C252.691 79.3408 253.071 79.4732 253.47 79.4732C254.062 79.4732 254.408 79.162 254.408 78.7118C254.408 78.2947 254.168 78.0564 253.563 77.8247C252.831 77.5665 252.379 77.1891 252.379 76.5601C252.379 75.865 252.958 75.3486 253.829 75.3486C254.288 75.3486 254.621 75.4545 254.82 75.567L254.661 76.0371C254.514 75.9577 254.215 75.8253 253.809 75.8253C253.197 75.8253 252.964 76.1894 252.964 76.4939C252.964 76.911 253.237 77.1163 253.856 77.3546C254.614 77.6459 255 78.01 255 78.6655C255 79.354 254.488 79.9498 253.43 79.9498C252.998 79.9498 252.525 79.8241 252.286 79.6652Z" fill="black"/>
</svg>
