<?xml version="1.0" encoding="UTF-8"?><svg id="Camada_1" xmlns="http://www.w3.org/2000/svg" viewBox="0 0 478 215.7"><defs><style>.cls-1{font-family:SitkaBanner, Sitka;font-size:48px;}.cls-1,.cls-2{fill:#000;}.cls-3{fill:#d700ff;}.cls-3,.cls-4{stroke-width:0px;}.cls-5{letter-spacing:0em;}.cls-4{fill:#662d91;}.cls-2{font-family:MyriadPro-Regular, 'Myriad Pro';font-size:12px;}</style></defs><rect class="cls-4" x="21.43" y="119.38" width="9.18" height="15.88"/><rect class="cls-4" x="88.14" y="167.88" width="19.19" height="15.88"/><rect class="cls-4" x="69.53" y="152.1" width="94.77" height="15.88" transform="translate(-43.13 276.96) rotate(-90)"/><rect class="cls-4" x="102.26" y="70.9" width="29.3" height="15.88" transform="translate(38.08 195.75) rotate(-90)"/><rect class="cls-4" x="121.44" y="46.67" width="29.3" height="15.88" transform="translate(81.49 190.7) rotate(-90)"/><rect class="cls-4" x="102.26" y="22.39" width="29.3" height="15.88" transform="translate(86.58 147.25) rotate(-90)"/><rect class="cls-4" x="121.43" y="95.13" width="29.33" height="15.88" transform="translate(33.02 239.17) rotate(-90)"/><rect class="cls-4" x="121.43" y="143.63" width="29.33" height="15.88" transform="translate(-15.47 287.66) rotate(-90)"/><rect class="cls-4" x="140.61" y="119.38" width="29.33" height="15.88" transform="translate(27.95 282.6) rotate(-90)"/><rect class="cls-4" x="144.14" y="31.02" width="60.61" height="15.88" transform="translate(135.48 213.39) rotate(-90)"/><rect class="cls-4" x="139.8" y="70.08" width="30.95" height="15.88" transform="translate(77.26 233.29) rotate(-90)"/><rect class="cls-4" x="147.34" y="29.15" width="15.88" height="15.88" transform="translate(118.18 192.37) rotate(-90)"/><rect class="cls-4" x="9.86" y="95.13" width="40.08" height="15.88"/><rect class="cls-4" x="107.32" y="95.13" width="19.2" height="15.88"/><rect class="cls-4" x="145.68" y="95.13" width="19.18" height="15.88"/><rect class="cls-4" x="184.04" y="95.13" width="19.18" height="15.88"/><rect class="cls-4" x="68.96" y="95.13" width="19.27" height="15.88"/><rect class="cls-4" x="126.5" y="119.38" width="19.18" height="15.88"/><rect class="cls-4" x="164.86" y="119.38" width="49.9" height="15.88"/><rect class="cls-4" x="88.14" y="119.38" width="19.19" height="15.88"/><rect class="cls-4" x="49.78" y="119.38" width="19.18" height="15.88"/><rect class="cls-3" x="21.01" y="180.54" width="38.41" height="15.88" transform="translate(-148.27 228.69) rotate(-90)"/><rect class="cls-3" x="145.69" y="46.93" width="19.18" height="14.25"/><rect class="cls-3" x="184.05" y="46.93" width="19.18" height="14.25"/><rect class="cls-3" x="32.27" y="112.91" width="15.88" height="30.66"/><rect class="cls-3" x="51.45" y="137.16" width="15.88" height="28.83"/><rect class="cls-3" x="70.63" y="112.91" width="15.88" height="71.1"/><rect class="cls-3" x="49.79" y="71.14" width="19.18" height="15.88"/><rect class="cls-3" x="11.86" y="71.14" width="19.18" height="15.88"/><rect class="cls-3" x="88.15" y="71.14" width="19.2" height="15.88"/><rect class="cls-3" x="32.27" y="64.45" width="15.88" height="29.3"/><rect class="cls-3" x="70.62" y="22.65" width="15.95" height="71.1"/><rect class="cls-3" x="107.33" y="46.93" width="19.18" height="15.88"/><rect class="cls-3" x="89.81" y="40.17" width="15.88" height="29.33"/><rect class="cls-3" x="89.81" y="88.67" width="15.88" height="29.33"/><rect class="cls-3" x="89.81" y="137.16" width="15.88" height="22.61"/><rect class="cls-3" x="51.45" y="88.67" width="15.88" height="29.33"/><rect class="cls-3" x="126.51" y="71.14" width="19.18" height="15.88"/><text class="cls-1" transform="translate(220.99 135.26)"><tspan x="0" y="0">F</tspan><tspan class="cls-5" x="22.98" y="0">R</tspan><tspan x="49.56" y="0">ONTEIRAS</tspan></text><text class="cls-1" transform="translate(206.76 92.75)"><tspan x="0" y="0">BORRANDO</tspan></text><text class="cls-2" transform="translate(299.85 152.84)"><tspan x="0" y="0">GRUPO DE ESTUDOS E PESQUISAS</tspan></text></svg>