<svg width="23" height="23" viewBox="0 0 23 23" fill="none" xmlns="http://www.w3.org/2000/svg">
<path d="M17.7548 0H5.24518C3.85407 0 2.51994 0.552616 1.53628 1.53628C0.552616 2.51994 0 3.85407 0 5.24518V17.7548C0 19.1459 0.552616 20.4801 1.53628 21.4637C2.51994 22.4474 3.85407 23 5.24518 23H17.7548C19.1459 23 20.4801 22.4474 21.4637 21.4637C22.4474 20.4801 23 19.1459 23 17.7548V5.24518C23 3.85407 22.4474 2.51994 21.4637 1.53628C20.4801 0.552616 19.1459 0 17.7548 0ZM7.77636 18.5675C7.78006 18.6317 7.77059 18.696 7.74854 18.7564C7.72649 18.8168 7.69233 18.8721 7.64814 18.9188C7.60396 18.9655 7.55069 19.0027 7.49161 19.0281C7.43252 19.0535 7.36887 19.0665 7.30456 19.0664H5.20508C5.07847 19.0633 4.95812 19.0107 4.8699 18.9198C4.78168 18.829 4.73263 18.7071 4.73328 18.5805V9.84872C4.73155 9.78568 4.74247 9.72293 4.7654 9.66418C4.78833 9.60544 4.82281 9.55188 4.8668 9.50669C4.91078 9.4615 4.96338 9.42558 5.02148 9.40106C5.07958 9.37655 5.14201 9.36393 5.20508 9.36395H7.30456C7.36763 9.36393 7.43006 9.37655 7.48816 9.40106C7.54626 9.42558 7.59886 9.4615 7.64285 9.50669C7.68683 9.55188 7.72131 9.60544 7.74424 9.66418C7.76717 9.72293 7.77809 9.78568 7.77636 9.84872V18.5675ZM6.2159 7.52749C5.98859 7.52578 5.76385 7.47933 5.5545 7.39077C5.34515 7.30221 5.15529 7.17328 4.99577 7.01134C4.83624 6.84941 4.71018 6.65764 4.62477 6.44699C4.53935 6.23633 4.49627 6.01092 4.49797 5.78362C4.49968 5.55631 4.54614 5.33157 4.6347 5.12222C4.72326 4.91287 4.85218 4.72301 5.01412 4.56349C5.17605 4.40396 5.36782 4.2779 5.57847 4.19248C5.78913 4.10707 6.01454 4.06399 6.24185 4.06569C6.69302 4.08037 7.1206 4.27077 7.43335 4.59629C7.7461 4.92181 7.91925 5.35666 7.91586 5.80806C7.91248 6.25946 7.73282 6.69167 7.41522 7.01246C7.09763 7.33325 6.66724 7.51723 6.2159 7.52513M18.9744 18.5533C18.9739 18.6725 18.9271 18.7868 18.8439 18.8722C18.7607 18.9576 18.6477 19.0073 18.5286 19.011H16.3123C16.193 19.0073 16.0798 18.9574 15.9966 18.8718C15.9134 18.7861 15.8667 18.6715 15.8665 18.5522V14.5136C15.8665 13.9109 16.0505 11.8916 14.2671 11.8916C12.8765 11.8916 12.6016 13.307 12.5486 13.9368V18.6442C12.5486 18.7637 12.5021 18.8787 12.4189 18.9645C12.3356 19.0504 12.2222 19.1005 12.1027 19.1042H9.95251C9.83072 19.1038 9.71402 19.0552 9.62801 18.969C9.54199 18.8828 9.49369 18.7659 9.49369 18.6442V9.80626C9.49737 9.68673 9.54746 9.57333 9.63333 9.4901C9.7192 9.40687 9.83411 9.36035 9.95369 9.36041H12.1027C12.2223 9.36035 12.3372 9.40687 12.4231 9.4901C12.509 9.57333 12.559 9.68673 12.5627 9.80626V10.567C12.8765 10.1078 13.3097 9.74288 13.8156 9.51174C14.3216 9.2806 14.881 9.19198 15.4336 9.25544C19.0133 9.25544 19.0004 12.5993 19.0004 14.5006L18.9744 18.5533Z" fill="black"/>
</svg>
